<svg width="48" height="47" viewBox="0 0 48 47" fill="none" xmlns="http://www.w3.org/2000/svg">
<path fill-rule="evenodd" clip-rule="evenodd" d="M23.9915 0C18.294 0.00295613 12.7832 2.02092 8.44471 5.69305C4.10618 9.36517 1.22277 14.452 0.310056 20.044C-0.602662 25.636 0.51482 31.3684 3.46271 36.2164C6.4106 41.0643 10.9966 44.7115 16.4008 46.5059C17.5931 46.7272 18.0422 45.9883 18.0422 45.36C18.0422 44.7317 18.0183 42.91 18.0104 40.9184C11.3338 42.3608 9.92294 38.101 9.92294 38.101C8.83402 35.3349 7.26024 34.6078 7.26024 34.6078C5.0824 33.1299 7.42319 33.1576 7.42319 33.1576C9.83552 33.3275 11.1033 35.6194 11.1033 35.6194C13.2414 39.2667 16.7188 38.2116 18.0859 37.5952C18.3005 36.0501 18.9244 34.999 19.612 34.4023C14.2786 33.8017 8.67504 31.7548 8.67504 22.6108C8.64199 20.2394 9.52701 17.9461 11.147 16.2054C10.9006 15.6047 10.0779 13.1785 11.3815 9.88286C11.3815 9.88286 13.3964 9.24271 17.9826 12.3289C21.9163 11.2592 26.0667 11.2592 30.0004 12.3289C34.5827 9.24271 36.5936 9.88286 36.5936 9.88286C37.9011 13.1706 37.0784 15.5968 36.832 16.2054C38.4571 17.9464 39.344 20.2437 39.3079 22.6187C39.3079 31.7824 33.6924 33.8017 28.3512 34.3905C29.2096 35.1334 29.9766 36.5836 29.9766 38.8122C29.9766 42.0051 29.9488 44.5736 29.9488 45.36C29.9488 45.9962 30.3819 46.7391 31.598 46.5059C37.0029 44.7113 41.5894 41.0634 44.5372 36.2147C47.485 31.3659 48.6019 25.6326 47.6882 20.0401C46.7744 14.4476 43.8896 9.36071 39.5496 5.68921C35.2097 2.01771 29.6977 0.00108239 23.9994 0H23.9915Z" fill="white"/>
</svg>
