<svg width="48" height="47" viewBox="0 0 48 47" fill="none" xmlns="http://www.w3.org/2000/svg">
<path d="M44.4469 0H3.54375C1.58437 0 0 1.50015 0 3.35487V43.186C0 45.0408 1.58437 46.55 3.54375 46.55H44.4469C46.4063 46.55 48 45.0408 48 43.1951V3.35487C48 1.50015 46.4063 0 44.4469 0ZM14.2406 39.6675H7.11563V17.4472H14.2406V39.6675ZM10.6781 14.4196C8.39063 14.4196 6.54375 12.6285 6.54375 10.4192C6.54375 8.20989 8.39063 6.41881 10.6781 6.41881C12.9563 6.41881 14.8031 8.20989 14.8031 10.4192C14.8031 12.6194 12.9563 14.4196 10.6781 14.4196ZM40.9031 39.6675H33.7875V28.8665C33.7875 26.2935 33.7406 22.975 30.0844 22.975C26.3812 22.975 25.8187 25.7843 25.8187 28.6846V39.6675H18.7125V17.4472H25.5375V20.4838H25.6312C26.5781 18.7382 28.9031 16.8926 32.3625 16.8926C39.5719 16.8926 40.9031 21.493 40.9031 27.4754V39.6675Z" fill="white"/>
</svg>
