<svg width="51" height="47" viewBox="0 0 51 47" fill="none" xmlns="http://www.w3.org/2000/svg">
<path d="M50.492 10.0443C50.492 10.0443 49.9939 5.48103 48.46 3.47735C46.5176 0.840253 44.3461 0.827325 43.35 0.672202C36.218 -3.38365e-07 25.51 0 25.51 0H25.49C25.49 0 14.782 -3.38365e-07 7.65 0.672202C6.65391 0.827325 4.48242 0.840253 2.54004 3.47735C1.00605 5.48103 0.517969 10.0443 0.517969 10.0443C0.517969 10.0443 0 15.4089 0 20.7607V25.7764C0 31.1281 0.508008 36.4928 0.508008 36.4928C0.508008 36.4928 1.00605 41.056 2.53008 43.0597C4.47246 45.6968 7.02246 45.6063 8.15801 45.8907C12.242 46.3949 25.5 46.55 25.5 46.55C25.5 46.55 36.218 46.5241 43.35 45.8649C44.3461 45.7097 46.5176 45.6968 48.46 43.0597C49.9939 41.056 50.492 36.4928 50.492 36.4928C50.492 36.4928 51 31.1411 51 25.7764V20.7607C51 15.4089 50.492 10.0443 50.492 10.0443ZM20.2307 31.865V13.2631L34.0066 22.5963L20.2307 31.865Z" fill="white"/>
</svg>
